<svg xmlns="http://www.w3.org/2000/svg" width="98" height="100" viewBox="0 0 98 100">
  <metadata><?xpacket begin="﻿" id="W5M0MpCehiHzreSzNTczkc9d"?>
<x:xmpmeta xmlns:x="adobe:ns:meta/" x:xmptk="Adobe XMP Core 5.6-c140 79.160451, 2017/05/06-01:08:21        ">
   <rdf:RDF xmlns:rdf="http://www.w3.org/1999/02/22-rdf-syntax-ns#">
      <rdf:Description rdf:about=""/>
   </rdf:RDF>
</x:xmpmeta>
                                                                                                    
                                                                                                    
                                                                                                    
                                                                                                    
                                                                                                    
                                                                                                    
                                                                                                    
                                                                                                    
                                                                                                    
                                                                                                    
                                                                                                    
                                                                                                    
                                                                                                    
                                                                                                    
                                                                                                    
                                                                                                    
                                                                                                    
                                                                                                    
                                                                                                    
                                                                                                    
                           
<?xpacket end="w"?></metadata>
<defs>
    <style>
      .cls-1 {
        fill: #00baff;
        fill-rule: evenodd;
      }
    </style>
  </defs>
  <path class="cls-1" d="M1729,4023.97h-10.31v-4.02h6.32v-5.81a5.185,5.185,0,0,0-5.16-5.19v-4.02a9.193,9.193,0,0,1,9.15,9.21v9.83Zm-22.52,80.96-3.97-.01c-39.76,0-60.85,0-62.66.01l-0.02-4.02c1.82-.01,22.91-0.01,62.68,0h3.73a5.175,5.175,0,0,0,4.47-5.13l-0.06-3.21h0.06v-78.43a9.231,9.231,0,0,1,1.55-5.13c-9.31,0-28.01,0-55.9-.01h-3.74a5.168,5.168,0,0,0-4.44,5.14v71.96h-3.99v-71.96a9.161,9.161,0,0,1,8.08-9.14l0.23-.01h66.52l0.23,4a5.164,5.164,0,0,0-4.55,5.15v82.44h-0.04a9.162,9.162,0,0,1-8.06,8.33Zm-67.18,0-0.23-.02a9.167,9.167,0,0,1-8.08-9.13v-5.63h70.52v5.63a5.154,5.154,0,0,0,4.55,5.14l-0.24,4.01c-1.82-.01-22.9-0.01-62.66-0.01Zm-4.32-10.76v1.61a5.166,5.166,0,0,0,4.45,5.13h3.73c27.89-.01,46.59,0,55.91-0.01a9.12,9.12,0,0,1-1.55-5.12v-1.61h-62.54Zm94.02-71.16h-3.99v-8.87a5.155,5.155,0,1,0-10.31,0h-3.99a9.145,9.145,0,1,1,18.29,0v8.87Zm-22.76,81.92c-4.65,0-8.72-4.28-8.72-9.15v-5.83h3.99v5.83c0,2.59,2.34,5.13,4.73,5.13v4.02Zm-20.17-17.8v-14.75h3.99v7.1l3.04-2.11,3.04,2.11v-7.1h3.99v14.75l-7.03-4.88Zm7.03-10.54a9.015,9.015,0,1,1,8.96-9.01A8.994,8.994,0,0,1,1693.1,4076.59Zm0-14.01a5,5,0,1,0,4.97,5A4.989,4.989,0,0,0,1693.1,4062.58Zm1.99,7.22h-3.99v-4.01h3.99v4.01Zm-4.23-46.28h-25.7v-4.02h25.7v4.02Zm8.8,10.09h-43.3v-4.02h43.3v4.02Zm0,9.93h-43.3v-4.02h43.3v4.02Zm0,9.93h-43.3v-4.02h43.3v4.02Zm-17.56,9.93h-25.74v-4.02h25.74v4.02Zm-8.64,9.93h-17.1v-4.01h17.1v4.01Z" transform="translate(-1631 -4004.94)"/>
</svg>
