<svg xmlns="http://www.w3.org/2000/svg" width="71" height="97" viewBox="0 0 71 97">
  <metadata><?xpacket begin="﻿" id="W5M0MpCehiHzreSzNTczkc9d"?>
<x:xmpmeta xmlns:x="adobe:ns:meta/" x:xmptk="Adobe XMP Core 5.6-c140 79.160451, 2017/05/06-01:08:21        ">
   <rdf:RDF xmlns:rdf="http://www.w3.org/1999/02/22-rdf-syntax-ns#">
      <rdf:Description rdf:about=""/>
   </rdf:RDF>
</x:xmpmeta>
                                                                                                    
                                                                                                    
                                                                                                    
                                                                                                    
                                                                                                    
                                                                                                    
                                                                                                    
                                                                                                    
                                                                                                    
                                                                                                    
                                                                                                    
                                                                                                    
                                                                                                    
                                                                                                    
                                                                                                    
                                                                                                    
                                                                                                    
                                                                                                    
                                                                                                    
                                                                                                    
                           
<?xpacket end="w"?></metadata>
<defs>
    <style>
      .cls-1 {
        fill: #00baff;
        fill-rule: evenodd;
      }
    </style>
  </defs>
  <path id="Shape_19_copy" data-name="Shape 19 copy" class="cls-1" d="M1111.84,4329.64h-3.97v-3.99h3.97v3.99Zm-7.95,0h-3.98v-3.99h3.98v3.99Zm-7.96,0h-3.97v-3.99h3.97v3.99Zm-7.95,0H1084v-3.99h3.98v3.99Zm-7.96,0h-0.5v-3.99h0.5v3.99Zm23.45,34.98h-3.98v-23.98h3.98v23.98Zm0,18.85h-3.98v-10.86h3.98v10.86Zm6.24,11.79h-12.47v-4h12.47a1.187,1.187,0,0,0,1.28-1v-78.27a1.187,1.187,0,0,0-1.28-1h-5.11a11.44,11.44,0,0,1-17.38,0h-5.11a1.18,1.18,0,0,0-1.28,1v17.77h-3.98v-17.77a5.137,5.137,0,0,1,5.26-4.99h6.1a1.968,1.968,0,0,1,1.66.89,7.424,7.424,0,0,0,12.07,0,1.981,1.981,0,0,1,1.66-.89h6.11a5.137,5.137,0,0,1,5.26,4.99v78.27A5.146,5.146,0,0,1,1109.71,4395.26Zm-16.98,8.74h-48.78v-70.03h48.78V4404Zm-44.8-4h40.82v-62.03h-40.82V4400Zm19.9-24.08a12.935,12.935,0,1,1,12.87-12.94A12.914,12.914,0,0,1,1067.83,4375.92Zm0-21.87a8.935,8.935,0,1,0,8.89,8.93A8.924,8.924,0,0,0,1067.83,4354.05Zm0,21.87c-3.85,0-5.58-6.5-5.58-12.94s1.73-12.93,5.58-12.93,5.58,6.5,5.58,12.93S1071.68,4375.92,1067.83,4375.92Zm0-21.56c-0.68,1.08-1.6,4.09-1.6,8.62s0.92,7.55,1.6,8.63c0.68-1.08,1.6-4.09,1.6-8.63S1068.51,4355.44,1067.83,4354.36Zm12.13,10.62h-23.23v-3.99h23.23v3.99Zm-3.49,21.01h-16.26v-4h16.26v4Z" transform="translate(-1043.97 -4307)"/>
</svg>
