<svg xmlns="http://www.w3.org/2000/svg" width="90" height="90" viewBox="0 0 90 90">
  <metadata><?xpacket begin="﻿" id="W5M0MpCehiHzreSzNTczkc9d"?>
<x:xmpmeta xmlns:x="adobe:ns:meta/" x:xmptk="Adobe XMP Core 5.6-c140 79.160451, 2017/05/06-01:08:21        ">
   <rdf:RDF xmlns:rdf="http://www.w3.org/1999/02/22-rdf-syntax-ns#">
      <rdf:Description rdf:about=""/>
   </rdf:RDF>
</x:xmpmeta>
                                                                                                    
                                                                                                    
                                                                                                    
                                                                                                    
                                                                                                    
                                                                                                    
                                                                                                    
                                                                                                    
                                                                                                    
                                                                                                    
                                                                                                    
                                                                                                    
                                                                                                    
                                                                                                    
                                                                                                    
                                                                                                    
                                                                                                    
                                                                                                    
                                                                                                    
                                                                                                    
                           
<?xpacket end="w"?></metadata>
<defs>
    <style>
      .cls-1 {
        fill: #00baff;
        fill-rule: evenodd;
      }
    </style>
  </defs>
  <path class="cls-1" d="M1479,4311a45,45,0,1,0,45,45A45,45,0,0,0,1479,4311Zm0,87a42,42,0,1,1,42-42A42.046,42.046,0,0,1,1479,4398Zm-21.49-21a0.356,0.356,0,0,0,.49.49l25.03-15.4a6.535,6.535,0,0,0,2.06-2.06l15.4-25.03a0.356,0.356,0,0,0-.49-0.49l-25.03,15.4a6.535,6.535,0,0,0-2.06,2.06Zm33.97-33.72a0.173,0.173,0,0,1,.24.24l-9.2,14.96a3.1,3.1,0,0,1-1.04,1.03l-14.96,9.21a0.173,0.173,0,0,1-.24-0.24l9.2-14.96a3.229,3.229,0,0,1,1.04-1.04Z" transform="translate(-1434 -4311)"/>
</svg>
