<svg xmlns="http://www.w3.org/2000/svg" width="98" height="99" viewBox="0 0 98 99">
  <metadata><?xpacket begin="﻿" id="W5M0MpCehiHzreSzNTczkc9d"?>
<x:xmpmeta xmlns:x="adobe:ns:meta/" x:xmptk="Adobe XMP Core 5.6-c140 79.160451, 2017/05/06-01:08:21        ">
   <rdf:RDF xmlns:rdf="http://www.w3.org/1999/02/22-rdf-syntax-ns#">
      <rdf:Description rdf:about=""/>
   </rdf:RDF>
</x:xmpmeta>
                                                                                                    
                                                                                                    
                                                                                                    
                                                                                                    
                                                                                                    
                                                                                                    
                                                                                                    
                                                                                                    
                                                                                                    
                                                                                                    
                                                                                                    
                                                                                                    
                                                                                                    
                                                                                                    
                                                                                                    
                                                                                                    
                                                                                                    
                                                                                                    
                                                                                                    
                                                                                                    
                           
<?xpacket end="w"?></metadata>
<defs>
    <style>
      .cls-1 {
        fill: #00baff;
        fill-rule: evenodd;
      }
    </style>
  </defs>
  <path class="cls-1" d="M900.938,4043.14H857.056L879,4017.07Zm-35.3-3.99h26.727L879,4023.27Zm36-18.51H884.017v-3.99H895.49l-1.215-2.74,1.214-2.73H884.017v-3.99h17.616l-2.989,6.72Zm-20.686,1.08h-3.993v-16.74h3.993v16.74ZM928,4065.4H887.566v-17.46H928v17.46Zm-36.44-3.99h32.447v-9.48H891.559v9.48Zm33.778,42.57H890.229v-42.57h35.108v42.57Zm-31.115-3.99h27.122V4065.4H894.222v34.59Zm5.906-43.57h-3.993v-6.99h3.993v6.99Zm9.651,0h-3.993v-6.99h3.993v6.99Zm9.651,0h-3.993v-6.99h3.993v6.99Zm-15.308,24.61h-3.994v-8.98h3.994v8.98Zm11.315,0h-3.994v-8.98h3.994v8.98Zm-45.009-15.63H830v-17.46h40.432v17.46Zm-36.439-3.99h32.446v-9.48H833.989v9.48Zm33.777,42.57H832.657v-42.57h35.109v42.57Zm-31.115-3.99h27.122V4065.4H836.651v34.59Zm5.907-43.57h-3.994v-6.99h3.994v6.99Zm9.651,0h-3.994v-6.99h3.994v6.99Zm9.65,0h-3.994v-6.99h3.994v6.99Zm-15.308,24.61h-3.993v-8.98h3.993v8.98Zm11.314,0h-3.993v-8.98h3.993v8.98Zm28.149,20.26h-3.993v-24.88a3.329,3.329,0,0,0-6.657,0v24.88H871.37v-24.88a7.322,7.322,0,0,1,14.644,0v24.88Zm3.154-42.93H869.2v-3.99h19.967v3.99Zm3.993,45.62h-27.2v-3.99h27.2v3.99Z" transform="translate(-830 -4004.97)"/>
</svg>
