<svg xmlns="http://www.w3.org/2000/svg" width="101" height="82" viewBox="0 0 101 82">
  <metadata><?xpacket begin="﻿" id="W5M0MpCehiHzreSzNTczkc9d"?>
<x:xmpmeta xmlns:x="adobe:ns:meta/" x:xmptk="Adobe XMP Core 5.6-c140 79.160451, 2017/05/06-01:08:21        ">
   <rdf:RDF xmlns:rdf="http://www.w3.org/1999/02/22-rdf-syntax-ns#">
      <rdf:Description rdf:about=""/>
   </rdf:RDF>
</x:xmpmeta>
                                                                                                    
                                                                                                    
                                                                                                    
                                                                                                    
                                                                                                    
                                                                                                    
                                                                                                    
                                                                                                    
                                                                                                    
                                                                                                    
                                                                                                    
                                                                                                    
                                                                                                    
                                                                                                    
                                                                                                    
                                                                                                    
                                                                                                    
                                                                                                    
                                                                                                    
                                                                                                    
                           
<?xpacket end="w"?></metadata>
<defs>
    <style>
      .cls-1 {
        fill: #00baff;
        fill-rule: evenodd;
      }
    </style>
  </defs>
  <path class="cls-1" d="M1315.8,4051.45h-3.98v-23h3.98v23Zm-8,0h-3.98v-23h3.98v23Zm8,41.67h-3.98v-23.01h3.98v23.01Zm-8,0h-3.98v-23.01h3.98v23.01Zm6.8-20.54h-9.58a3.636,3.636,0,0,1-3.61-3.65v-15.35a3.636,3.636,0,0,1,3.61-3.65h9.58a3.628,3.628,0,0,1,3.6,3.65v15.35A3.628,3.628,0,0,1,1314.6,4072.58Zm-9.21-4.03h8.83v-14.59h-8.83v14.59Zm6.41,1h-3.98v-5.46h3.98v5.46Zm18.18,26.29H1228.97v-69.66h101.01v69.66Zm-97.03-4.02H1326V4030.2h-93.05v61.62Zm61.12-69.42h-3.98v-4.52h-21.23v4.52h-3.99v-8.55h29.2v8.55Zm-38.94,29.05h-3.98v-23h3.98v23Zm-8.01,0h-3.98v-23h3.98v23Zm8.01,41.67h-3.98v-23.01h3.98v23.01Zm-8.01,0h-3.98v-23.01h3.98v23.01Zm6.81-20.54h-9.59a3.634,3.634,0,0,1-3.6-3.65v-15.35a3.634,3.634,0,0,1,3.6-3.65h9.59a3.634,3.634,0,0,1,3.6,3.65v15.35A3.634,3.634,0,0,1,1253.93,4072.58Zm-9.21-4.03h8.83v-14.59h-8.83v14.59Zm6.4,1h-3.98v-5.46h3.98v5.46Zm41.8,14.28-28.82-4.71,3.51-21.85,28.81,4.72Zm-24.25-8.04,20.96,3.43,2.23-13.9-20.96-3.43Zm17.35-2.22-13.1-2.14,0.63-3.98,13.1,2.15Zm7.51-25.15a5.7,5.7,0,1,1,5.64-5.7A5.679,5.679,0,0,1,1293.53,4048.42Zm0-7.38a1.68,1.68,0,1,0,1.66,1.68A1.68,1.68,0,0,0,1293.53,4041.04Zm-29.87,47.08h-3.73v-4.02h3.73v4.02Zm0.34-38-0.69-3.97,21.15-3.77,0.69,3.96Z" transform="translate(-1228.97 -4013.84)"/>
</svg>
